<svg version="1.1" id="Layer_1" xmlns="http://www.w3.org/2000/svg" xmlns:xlink="http://www.w3.org/1999/xlink" x="0px" y="0px"
	 width="100%" viewBox="0 0 907 275" enable-background="new 0 0 907 275" xml:space="preserve">
<path fill="#010101" opacity="1.000000" stroke="none" 
	d="
M908.000000,174.000000 
	C908.000000,207.993713 908.000000,241.987427 908.000000,275.985840 
	C605.728882,275.990570 303.457794,275.990570 1.093339,275.990570 
	C1.093339,184.412598 1.093339,92.825081 1.093339,1.118778 
	C303.333313,1.118778 605.666626,1.118778 908.000000,1.118778 
	C908.000000,47.752338 908.000000,94.410133 907.815308,141.961060 
	C891.730469,137.203888 878.066040,129.616241 879.123230,109.541138 
	C875.029541,109.541138 871.278748,109.541138 867.176392,109.541138 
	C868.398621,129.847153 854.656250,137.485001 838.943298,143.310776 
	C841.982117,150.817856 842.321411,151.355621 848.749512,148.072159 
	C857.091248,143.811157 864.978577,138.660400 872.536987,134.202057 
	C879.346252,138.362747 886.808411,143.225449 894.571167,147.548401 
	C899.003540,150.016739 904.088074,152.574341 907.271912,145.499771 
	C907.514587,145.666504 907.757324,145.833252 908.000000,146.000000 
	C908.000000,152.356018 908.000000,158.712036 907.531982,165.559738 
	C897.317139,166.051422 887.570251,166.051422 877.388733,166.051422 
	C877.388733,159.523270 877.388733,153.765488 877.388733,147.925644 
	C873.507263,147.925644 870.084656,147.925644 866.082947,147.925644 
	C866.082947,154.047836 866.082947,159.921646 866.082947,166.184601 
	C855.087158,166.184601 844.669189,166.184601 834.263062,166.184601 
	C834.263062,168.981094 834.263062,171.356995 834.263062,174.000000 
	C859.085205,174.000000 883.542603,174.000000 908.000000,174.000000 
M567.380920,107.715240 
	C566.916809,107.782814 566.452637,107.850388 565.255981,107.654472 
	C562.690186,107.654472 560.124390,107.654472 557.176514,107.654472 
	C557.176514,112.736389 557.176514,117.001144 557.176514,121.190674 
	C553.058167,121.190674 549.353577,121.190674 545.252808,121.190674 
	C545.252808,116.832848 545.252808,112.891426 545.252808,108.735413 
	C541.293030,108.735413 537.744324,108.735413 533.806030,108.735413 
	C533.806030,112.157280 533.806030,115.262375 533.806030,118.608711 
	C526.707092,118.608711 520.000427,118.608711 512.786743,118.608711 
	C512.786743,115.107079 512.786743,111.878319 512.786743,108.685234 
	C508.849640,108.685234 505.427002,108.685234 501.526733,108.685234 
	C501.526733,118.066597 501.499786,127.174950 501.535706,136.283066 
	C501.562256,143.016312 502.736267,144.195755 509.335571,144.223206 
	C519.152161,144.264053 528.995483,143.848907 538.774414,144.466705 
	C543.742798,144.780594 545.057983,142.672974 545.300232,138.691101 
	C545.478027,135.768692 545.335022,132.826767 545.335022,129.202652 
	C549.883484,129.531403 553.788696,129.813675 557.580872,130.831528 
	C557.663513,131.562469 557.746155,132.293411 557.519836,133.897812 
	C557.619507,137.589813 557.719116,141.281815 557.579346,145.698090 
	C556.548950,149.534210 559.141663,148.382858 561.838989,148.490646 
	C563.542908,148.398514 565.246765,148.306381 567.525085,148.375000 
	C567.685242,148.257187 567.845398,148.139359 568.778809,147.618561 
	C568.711365,135.069107 568.643921,122.519646 568.767944,109.484871 
	C568.716064,109.318893 568.664185,109.152908 568.858337,108.500229 
	C568.571655,108.356461 568.284973,108.212685 567.380920,107.715240 
M822.951843,150.245804 
	C820.045471,150.329697 817.139099,150.413605 813.292725,150.311172 
	C810.103882,150.374023 806.915039,150.436874 802.856750,150.244690 
	C796.224548,150.327591 789.592285,150.410492 782.136108,150.309525 
	C779.664795,150.370972 777.193481,150.432419 773.940430,150.244949 
	C772.038269,150.328934 770.136169,150.412918 767.289429,150.310257 
	C763.768799,150.373047 760.248108,150.435837 756.006836,150.245590 
	C754.749695,150.334976 753.492554,150.424362 751.068298,150.499069 
	C750.820740,151.151077 750.573120,151.803070 749.957581,153.108261 
	C749.957581,154.698517 749.957581,156.288773 749.957581,158.291946 
	C760.913147,158.291946 771.323242,158.291946 782.241211,158.291946 
	C782.241211,166.587524 782.241211,174.472992 782.241211,182.393707 
	C786.303467,182.393707 789.839355,182.393707 793.760620,182.393707 
	C793.760620,174.256210 793.760620,166.496216 793.760620,158.179535 
	C804.688843,158.179535 815.239746,158.179535 826.497070,158.179535 
	C825.960876,155.244781 825.540955,152.946426 824.481934,150.350113 
	C824.251892,150.398361 824.021912,150.446609 822.951843,150.245804 
M733.509155,107.745041 
	C733.332581,107.801018 733.155945,107.856987 732.272278,107.661011 
	C729.854736,107.739960 727.437256,107.818909 724.365234,107.839302 
	C724.249268,108.225281 724.133301,108.611259 723.828918,109.918373 
	C723.898560,133.613998 723.968262,157.309631 723.981018,181.785980 
	C724.368958,182.008423 724.756836,182.230881 725.881165,182.717865 
	C728.818848,182.717865 731.756470,182.717865 735.268738,182.717865 
	C735.268738,167.253052 735.268738,152.389862 735.268738,137.006683 
	C739.584961,137.006683 743.312622,137.006683 747.032471,137.006683 
	C747.032471,134.218170 747.032471,131.974854 747.032471,129.243164 
	C742.967834,129.243164 739.226929,129.243164 735.064087,129.243164 
	C735.064087,124.632912 735.193665,120.500046 735.019165,116.380058 
	C734.900452,113.577965 734.356079,110.793900 733.509155,107.745041 
M767.941223,142.405380 
	C781.415222,142.421097 794.889404,142.395157 808.362976,142.480484 
	C811.928955,142.503052 815.180847,141.513611 815.340576,137.697693 
	C815.720032,128.628510 815.462708,119.532684 815.462708,110.440140 
	C796.574829,110.440140 778.217773,110.440140 759.524536,110.440140 
	C759.524536,119.575027 759.416870,128.369431 759.581238,137.158768 
	C759.641052,140.359695 761.299866,142.503555 765.648865,142.333359 
	C766.113464,142.267868 766.578125,142.202362 767.941223,142.405380 
M340.714905,113.929459 
	C340.791718,123.282509 340.868500,132.635559 340.798615,142.505295 
	C340.872955,142.668198 340.947266,142.831085 340.934601,143.731750 
	C343.169250,145.064804 345.294403,147.245758 347.661743,147.551559 
	C352.358673,148.158249 357.189148,147.730896 362.159576,147.730896 
	C362.159576,154.042633 362.159576,159.800400 362.159576,166.145050 
	C351.448608,166.145050 340.899048,166.145050 330.415466,166.145050 
	C330.415466,169.315689 330.415466,171.893188 330.415466,174.531128 
	C355.815887,174.531128 380.870117,174.531128 405.933929,174.531128 
	C405.933929,171.923126 405.933929,169.650238 405.933929,166.743439 
	C395.169159,166.743439 384.625610,166.743439 374.274780,166.743439 
	C374.274780,160.345795 374.274780,154.593597 374.274780,148.453369 
	C382.091644,148.453369 389.533112,148.453369 397.057434,148.453369 
	C397.057434,145.667252 397.057434,143.296600 397.057434,140.477661 
	C381.934448,140.477661 367.187927,140.477661 351.898926,140.477661 
	C351.898926,130.458054 351.898926,120.889275 351.898926,110.508171 
	C347.848358,111.064659 344.433258,111.533836 340.786987,112.494934 
	C340.837067,112.669067 340.887115,112.843201 340.714905,113.929459 
M103.999931,120.382484 
	C105.647842,117.305679 106.281601,119.677086 107.020927,120.977760 
	C113.682884,132.698105 120.302856,144.442322 126.977097,156.155640 
	C137.358521,174.375061 147.772766,192.575760 158.536484,211.420578 
	C159.835831,209.340439 160.825653,207.857193 161.715073,206.316010 
	C169.286148,193.196854 176.868011,180.083801 184.391586,166.937408 
	C203.981613,132.706741 223.556107,98.467163 243.073853,64.195282 
	C243.905838,62.734356 245.058014,60.332897 244.457153,59.353069 
	C238.634567,49.857773 231.094650,41.832806 222.597122,34.234001 
	C201.171188,71.092979 180.130539,107.289139 158.696365,144.162277 
	C140.740158,112.988014 123.221893,82.574097 105.646240,52.060539 
	C105.061020,52.573784 104.896515,52.660126 104.816803,52.796158 
	C81.339859,92.860901 57.862873,132.925629 34.436428,173.019897 
	C33.925560,173.894241 33.491947,175.352905 33.869099,176.125748 
	C39.188164,187.025528 45.438507,197.334320 53.685844,206.795380 
	C70.498383,177.944016 87.075523,149.496613 103.999931,120.382484 
M282.077606,193.407211 
	C264.959076,164.139572 247.840561,134.871918 230.436478,105.116020 
	C228.334534,108.716431 226.466354,111.838737 224.671463,115.002625 
	C203.416214,152.469803 182.156937,189.934738 160.976685,227.444290 
	C160.080505,229.031372 158.958084,231.585876 159.609238,232.780090 
	C165.365860,243.337585 171.500153,253.689117 177.999252,264.925171 
	C196.047318,233.339630 213.587509,202.642883 231.442490,171.395218 
	C248.714600,201.221222 265.674957,230.508881 283.515106,261.315796 
	C290.095337,250.524643 296.202087,240.709656 302.000854,230.715942 
	C302.635742,229.621811 301.909302,227.264587 301.120087,225.892471 
	C294.983521,215.223450 288.676605,204.652420 282.077606,193.407211 
M630.495789,170.335983 
	C636.189331,170.335983 641.882874,170.335983 647.452759,170.335983 
	C647.452759,163.979538 647.452759,158.695618 647.452759,152.937561 
	C645.243652,152.937561 643.229065,153.227936 641.358643,152.833954 
	C640.141174,152.577515 639.133545,151.325180 638.031921,150.519028 
	C639.129333,149.864944 640.207825,148.685989 641.327271,148.645706 
	C646.788818,148.449188 652.261169,148.556763 657.772278,148.556763 
	C657.772278,145.996094 657.772278,143.945465 657.772278,141.898224 
	C632.357727,141.898224 607.307190,141.898224 582.184509,141.898224 
	C582.184509,144.209076 582.184509,146.154251 582.184509,148.585846 
	C588.807312,148.585846 595.232483,148.585846 601.896851,148.585846 
	C601.896851,150.029404 602.065369,151.784424 601.871704,151.825348 
	C598.623901,152.511673 595.330750,152.984039 591.937012,153.521484 
	C591.937012,155.584396 591.937012,157.660797 591.937012,159.985352 
	C594.091003,159.985352 595.915039,159.984985 597.739136,159.985397 
	C609.567139,159.988083 621.395386,160.034592 633.222961,159.961151 
	C635.969360,159.944107 637.931763,160.240189 636.564392,164.184570 
	C622.085083,164.184570 607.502441,164.184570 592.505737,164.184570 
	C592.505737,169.096893 592.105347,173.602829 592.715820,177.967346 
	C592.939270,179.564957 595.546387,182.037659 597.089966,182.055557 
	C612.899048,182.238876 628.713013,182.006439 644.525452,181.863205 
	C645.784729,181.851791 647.042175,181.640076 648.345947,181.517151 
	C648.345947,179.217941 648.345947,177.281937 648.345947,174.827454 
	C633.224548,174.827454 618.325989,174.827454 603.296692,174.827454 
	C603.296692,173.054626 603.296692,171.810638 603.296692,170.335632 
	C612.210144,170.335632 620.853577,170.335632 630.495789,170.335983 
M449.839294,127.342949 
	C443.089813,127.995361 436.340332,128.647781 428.941895,129.362930 
	C428.941895,122.304184 428.941895,116.404587 428.941895,110.323639 
	C424.949249,110.323639 421.530579,110.323639 417.752289,110.323639 
	C417.752289,126.004791 417.591614,141.473358 417.988770,156.927597 
	C418.030701,158.559891 421.299530,161.406754 423.159454,161.480972 
	C433.968018,161.912201 444.815063,161.941711 455.617950,161.438538 
	C457.578217,161.347244 460.976532,158.205383 461.028198,156.395233 
	C461.464478,141.114471 461.277039,125.815895 461.277039,110.503410 
	C457.270386,110.503410 453.729370,110.503410 449.932312,110.503410 
	C449.932312,116.055511 449.932312,121.208694 449.839294,127.342949 
M619.497070,119.795937 
	C610.359375,119.795937 601.221741,119.795937 591.718384,119.795937 
	C591.718384,124.773186 591.328247,129.443542 591.939941,133.978775 
	C592.141357,135.472183 594.906616,137.694290 596.546753,137.736160 
	C604.328308,137.934906 612.125061,137.392609 619.918518,137.309265 
	C629.870117,137.202850 639.823792,137.283463 649.974976,137.283463 
	C649.974976,134.737503 649.974976,132.679626 649.974976,130.221771 
	C634.269104,130.221771 618.858521,130.221771 603.492676,130.221771 
	C602.093384,126.093636 604.213074,125.872086 607.116028,125.890701 
	C620.735962,125.978058 634.356750,125.929543 648.286682,125.929543 
	C648.286682,119.992844 648.286682,114.441856 648.286682,108.762085 
	C629.027527,108.762085 610.017212,108.762085 591.150574,108.762085 
	C591.150574,111.209206 591.150574,113.277702 591.150574,115.504890 
	C605.526794,115.504890 619.504578,115.452835 633.480286,115.597908 
	C634.674438,115.610298 635.854919,116.934196 637.041748,117.648827 
	C635.854126,118.364174 634.698486,119.624435 633.473022,119.696480 
	C629.159973,119.950066 624.822937,119.795601 619.497070,119.795937 
M568.035156,150.417603 
	C564.623108,150.417603 561.211060,150.417603 557.657410,150.417603 
	C557.503052,153.500061 557.373047,156.097458 557.242798,158.698837 
	C546.747314,158.698837 536.530518,158.698837 526.210388,158.698837 
	C526.075562,155.770508 525.956604,153.187256 525.832031,150.481506 
	C522.014648,150.481506 518.602173,150.481506 514.802063,150.481506 
	C514.802063,159.857773 514.759399,168.976395 514.824036,178.094269 
	C514.848328,181.520325 517.194824,182.696243 520.161133,182.710480 
	C534.310730,182.778412 548.461060,182.815369 562.610413,182.736664 
	C566.531006,182.714844 568.877625,180.555588 568.881714,176.510040 
	C568.890259,168.028152 568.757080,159.546127 568.035156,150.417603 
M690.065918,145.413940 
	C694.616455,149.520264 698.902832,153.978333 703.783997,157.644409 
	C709.966858,162.288147 711.070679,161.837433 716.337891,154.846680 
	C696.556702,145.783478 693.960022,128.532776 696.024963,109.518211 
	C691.298279,109.518211 687.552429,109.518211 682.910278,109.518211 
	C685.281189,128.873138 682.196167,145.875107 662.614258,155.118851 
	C668.379456,161.280884 668.577881,161.540390 674.253479,157.200546 
	C678.841248,153.692520 682.846741,149.428162 687.189453,145.588531 
	C687.776611,145.069397 688.824219,145.070938 690.065918,145.413940 
M486.506378,129.418274 
	C483.955322,129.761993 482.986816,128.779831 483.065063,126.096344 
	C483.242035,120.025627 483.120758,113.946220 483.120758,107.904495 
	C479.008240,107.904495 475.577423,107.904495 472.150879,107.904495 
	C472.150879,132.901337 472.150879,157.614090 472.150879,182.468750 
	C475.920563,182.468750 479.330139,182.468750 483.278809,182.468750 
	C483.278809,167.314606 483.278809,152.434464 483.278809,137.065552 
	C487.544891,137.065552 491.280273,137.065552 495.078125,137.065552 
	C495.078125,134.299240 495.078125,132.041000 495.078125,129.411057 
	C492.358032,129.411057 489.899353,129.411057 486.506378,129.418274 
M724.192444,211.985535 
	C724.590332,211.042465 724.988220,210.099396 725.738281,208.321594 
	C727.299805,214.337402 728.634033,219.458755 729.958008,224.582748 
	C731.760742,231.559540 732.002380,231.703369 739.686829,230.095627 
	C741.906006,220.251587 744.143250,210.327164 746.351868,200.529785 
	C741.647888,199.238693 739.815613,200.561081 739.309448,204.740387 
	C738.709229,209.696503 737.366943,214.562759 736.346191,219.467957 
	C734.093018,214.930222 732.552063,210.535339 731.688782,206.011169 
	C730.723999,200.954544 728.432007,198.651505 722.813904,200.592911 
	C720.986267,206.797440 719.057312,213.345810 717.128357,219.894180 
	C715.328125,214.785599 713.943848,209.957245 713.402100,205.036133 
	C712.879089,200.285324 710.880432,199.002991 706.291443,200.681244 
	C708.597473,210.667542 710.895264,220.618210 713.126526,230.280884 
	C717.891235,231.767303 720.018066,230.169540 720.806030,225.818146 
	C721.602112,221.422058 722.925781,217.121536 724.192444,211.985535 
M520.699951,229.086166 
	C523.257324,229.771484 525.814636,230.456802 528.612122,231.206467 
	C528.612122,220.115433 528.612122,210.353592 528.612122,200.329224 
	C526.627075,200.329224 524.871643,200.329224 522.395752,200.329224 
	C522.395752,206.983856 522.395752,213.597321 522.395752,220.210785 
	C518.223999,215.178421 514.868225,210.085709 512.207458,204.652634 
	C510.050171,200.247711 507.141327,199.071518 502.552856,200.613724 
	C502.552856,210.504822 502.552856,220.391846 502.552856,230.375916 
	C504.700653,230.375916 506.544983,230.375916 508.829773,230.375916 
	C508.829773,223.426193 508.829773,216.900375 508.829773,210.374557 
	C509.124939,210.294434 509.420135,210.214310 509.715302,210.134186 
	C513.236694,216.237579 516.758057,222.340958 520.699951,229.086166 
M539.805847,205.374588 
	C538.996155,207.004318 537.969360,208.563461 537.412659,210.275482 
	C534.247925,220.007217 538.958008,229.766113 547.485046,231.351700 
	C554.501221,232.656326 560.523010,229.413193 563.193848,222.891327 
	C566.203430,215.542297 564.060242,206.601532 558.320312,202.560654 
	C552.683044,198.592026 546.214722,199.390121 539.805847,205.374588 
M702.811340,226.721909 
	C699.317383,218.658417 695.909607,210.555222 692.232788,202.575989 
	C691.705994,201.432877 689.879028,200.234787 688.654602,200.235565 
	C687.180237,200.236511 684.887573,201.116760 684.362427,202.263504 
	C680.168091,211.422714 676.308472,220.735199 671.721863,231.460953 
	C674.925598,230.490005 678.420715,230.233505 678.648804,229.232590 
	C680.242004,222.240601 685.258301,222.882584 690.494873,222.770493 
	C693.956055,222.696411 695.835571,223.840210 696.621582,226.986404 
	C697.660889,231.145966 700.399170,231.330826 704.119446,230.278122 
	C703.731873,229.239532 703.399780,228.349808 702.811340,226.721909 
M622.458435,222.930145 
	C619.593018,216.231277 616.847839,209.476059 613.757080,202.882828 
	C613.164429,201.618530 611.294067,200.447891 609.863586,200.233871 
	C608.611267,200.046494 606.365479,200.904999 605.901184,201.917313 
	C601.641724,211.203873 597.675171,220.624771 593.623230,230.006500 
	C593.884338,230.396576 594.145386,230.786652 594.406433,231.176727 
	C596.327454,230.507111 599.711060,230.152756 599.934326,229.117157 
	C601.492432,221.888718 606.774902,222.936523 611.892822,222.831757 
	C614.961243,222.768951 617.061462,223.450974 617.817444,226.608902 
	C618.814453,230.773376 621.343567,231.667450 625.432861,230.121033 
	C624.512573,227.835419 623.659058,225.715591 622.458435,222.930145 
M570.710693,209.971619 
	C572.952454,216.046005 575.075500,222.169266 577.539368,228.152191 
	C578.014038,229.304901 579.754272,230.424026 581.041809,230.600235 
	C582.072693,230.741302 583.960876,229.687607 584.341980,228.720291 
	C588.018555,219.388901 591.456421,209.963455 595.012207,200.431717 
	C588.961914,199.882294 588.953796,199.879562 587.359680,204.631409 
	C585.436279,210.364883 583.528503,216.103607 581.613892,221.840057 
	C578.601990,216.021561 576.345093,210.232544 574.728394,204.269958 
	C573.562622,199.970596 571.363403,199.193253 567.337708,200.704681 
	C568.397644,203.666260 569.398621,206.462936 570.710693,209.971619 
M666.844421,230.772537 
	C667.824097,229.636475 668.803772,228.500397 669.783447,227.364319 
	C669.390320,226.911285 668.997192,226.458267 668.604065,226.005234 
	C663.721741,226.005234 658.839417,226.005234 653.553528,226.005234 
	C653.553528,217.137115 653.553528,208.735443 653.553528,200.363556 
	C651.390869,200.363556 649.658752,200.363556 647.872070,200.363556 
	C647.872070,210.588516 647.872070,220.492340 647.872070,230.763596 
	C654.078857,230.763596 660.024231,230.763596 666.844421,230.772537 
z"/>
<path fill="#D5E0E2" opacity="1.000000" stroke="none" 
	d="
M908.000000,145.600006 
	C907.757324,145.833252 907.514587,145.666504 907.271912,145.499771 
	C904.088074,152.574341 899.003540,150.016739 894.571167,147.548401 
	C886.808411,143.225449 879.346252,138.362747 872.536987,134.202057 
	C864.978577,138.660400 857.091248,143.811157 848.749512,148.072159 
	C842.321411,151.355621 841.982117,150.817856 838.943298,143.310776 
	C854.656250,137.485001 868.398621,129.847153 867.176392,109.541138 
	C871.278748,109.541138 875.029541,109.541138 879.123230,109.541138 
	C878.066040,129.616241 891.730469,137.203888 907.815308,142.427094 
	C908.000000,143.066666 908.000000,144.133347 908.000000,145.600006 
z"/>
<path fill="#D4DEE1" opacity="1.000000" stroke="none" 
	d="
M908.000000,173.555832 
	C883.542603,174.000000 859.085205,174.000000 834.263062,174.000000 
	C834.263062,171.356995 834.263062,168.981094 834.263062,166.184601 
	C844.669189,166.184601 855.087158,166.184601 866.082947,166.184601 
	C866.082947,159.921646 866.082947,154.047836 866.082947,147.925644 
	C870.084656,147.925644 873.507263,147.925644 877.388733,147.925644 
	C877.388733,153.765488 877.388733,159.523270 877.388733,166.051422 
	C887.570251,166.051422 897.317139,166.051422 907.531982,166.025711 
	C908.000000,168.370560 908.000000,170.741104 908.000000,173.555832 
z"/>
<path fill="#DAE6E8" opacity="1.000000" stroke="none" 
	d="
M103.826294,120.715843 
	C87.075523,149.496613 70.498383,177.944016 53.685844,206.795380 
	C45.438507,197.334320 39.188164,187.025528 33.869099,176.125748 
	C33.491947,175.352905 33.925560,173.894241 34.436428,173.019897 
	C57.862873,132.925629 81.339859,92.860901 104.816803,52.796158 
	C104.896515,52.660126 105.061020,52.573784 105.646240,52.060539 
	C123.221893,82.574097 140.740158,112.988014 158.696365,144.162277 
	C180.130539,107.289139 201.171188,71.092979 222.597122,34.234001 
	C231.094650,41.832806 238.634567,49.857773 244.457153,59.353069 
	C245.058014,60.332897 243.905838,62.734356 243.073853,64.195282 
	C223.556107,98.467163 203.981613,132.706741 184.391586,166.937408 
	C176.868011,180.083801 169.286148,193.196854 161.715073,206.316010 
	C160.825653,207.857193 159.835831,209.340439 158.536484,211.420578 
	C147.772766,192.575760 137.358521,174.375061 126.977097,156.155640 
	C120.302856,144.442322 113.682884,132.698105 107.020927,120.977760 
	C106.281601,119.677086 105.647842,117.305679 103.826294,120.715843 
z"/>
<path fill="#DAE5E8" opacity="1.000000" stroke="none" 
	d="
M282.249969,193.729156 
	C288.676605,204.652420 294.983521,215.223450 301.120087,225.892471 
	C301.909302,227.264587 302.635742,229.621811 302.000854,230.715942 
	C296.202087,240.709656 290.095337,250.524643 283.515106,261.315796 
	C265.674957,230.508881 248.714600,201.221222 231.442490,171.395218 
	C213.587509,202.642883 196.047318,233.339630 177.999252,264.925171 
	C171.500153,253.689117 165.365860,243.337585 159.609238,232.780090 
	C158.958084,231.585876 160.080505,229.031372 160.976685,227.444290 
	C182.156937,189.934738 203.416214,152.469803 224.671463,115.002625 
	C226.466354,111.838737 228.334534,108.716431 230.436478,105.116020 
	C247.840561,134.871918 264.959076,164.139572 282.249969,193.729156 
z"/>
<path fill="#D3DEE0" opacity="1.000000" stroke="none" 
	d="
M629.996399,170.335815 
	C620.853577,170.335632 612.210144,170.335632 603.296692,170.335632 
	C603.296692,171.810638 603.296692,173.054626 603.296692,174.827454 
	C618.325989,174.827454 633.224548,174.827454 648.345947,174.827454 
	C648.345947,177.281937 648.345947,179.217941 648.345947,181.517151 
	C647.042175,181.640076 645.784729,181.851791 644.525452,181.863205 
	C628.713013,182.006439 612.899048,182.238876 597.089966,182.055557 
	C595.546387,182.037659 592.939270,179.564957 592.715820,177.967346 
	C592.105347,173.602829 592.505737,169.096893 592.505737,164.184570 
	C607.502441,164.184570 622.085083,164.184570 636.564392,164.184570 
	C637.931763,160.240189 635.969360,159.944107 633.222961,159.961151 
	C621.395386,160.034592 609.567139,159.988083 597.739136,159.985397 
	C595.915039,159.984985 594.091003,159.985352 591.937012,159.985352 
	C591.937012,157.660797 591.937012,155.584396 591.937012,153.521484 
	C595.330750,152.984039 598.623901,152.511673 601.871704,151.825348 
	C602.065369,151.784424 601.896851,150.029404 601.896851,148.585846 
	C595.232483,148.585846 588.807312,148.585846 582.184509,148.585846 
	C582.184509,146.154251 582.184509,144.209076 582.184509,141.898224 
	C607.307190,141.898224 632.357727,141.898224 657.772278,141.898224 
	C657.772278,143.945465 657.772278,145.996094 657.772278,148.556763 
	C652.261169,148.556763 646.788818,148.449188 641.327271,148.645706 
	C640.207825,148.685989 639.129333,149.864944 638.031921,150.519012 
	C639.133545,151.325180 640.141174,152.577515 641.358643,152.833954 
	C643.229065,153.227936 645.243652,152.937561 647.452759,152.937561 
	C647.452759,158.695618 647.452759,163.979538 647.452759,170.335983 
	C641.882874,170.335983 636.189331,170.335983 629.996399,170.335815 
M612.693787,150.731064 
	C613.513428,151.795456 614.255066,153.693161 615.166260,153.778412 
	C618.899353,154.127625 622.684204,153.924210 626.449951,153.924210 
	C626.750061,153.468781 627.050110,153.013351 627.350159,152.557922 
	C626.453735,151.466782 625.591858,149.477310 624.654846,149.441254 
	C620.765381,149.291611 616.853210,149.731598 612.693787,150.731064 
z"/>
<path fill="#D5E0E2" opacity="1.000000" stroke="none" 
	d="
M557.693909,130.095932 
	C553.788696,129.813675 549.883484,129.531403 545.335022,129.202652 
	C545.335022,132.826767 545.478027,135.768692 545.300232,138.691101 
	C545.057983,142.672974 543.742798,144.780594 538.774414,144.466705 
	C528.995483,143.848907 519.152161,144.264053 509.335571,144.223206 
	C502.736267,144.195755 501.562256,143.016312 501.535706,136.283066 
	C501.499786,127.174950 501.526733,118.066597 501.526733,108.685234 
	C505.427002,108.685234 508.849640,108.685234 512.786743,108.685234 
	C512.786743,111.878319 512.786743,115.107079 512.786743,118.608711 
	C520.000427,118.608711 526.707092,118.608711 533.806030,118.608711 
	C533.806030,115.262375 533.806030,112.157280 533.806030,108.735413 
	C537.744324,108.735413 541.293030,108.735413 545.252808,108.735413 
	C545.252808,112.891426 545.252808,116.832848 545.252808,121.190674 
	C549.353577,121.190674 553.058167,121.190674 557.176514,121.190674 
	C557.176514,117.001144 557.176514,112.736389 557.176514,107.654472 
	C560.124390,107.654472 562.690186,107.654472 565.664429,108.102715 
	C566.907410,109.024040 567.742004,109.497116 568.576538,109.970184 
	C568.643921,122.519646 568.711365,135.069107 568.260498,147.687042 
	C567.478394,147.908432 567.214539,148.061340 566.950684,148.214233 
	C565.246765,148.306381 563.542908,148.398514 561.394775,147.983276 
	C559.906677,146.641876 558.862732,145.807831 557.818787,144.973816 
	C557.719116,141.281815 557.619507,137.589813 558.017090,133.397980 
	C560.624695,131.266083 559.976868,130.441620 557.693909,130.095932 
M533.923584,131.517181 
	C533.923584,129.753372 533.923584,127.989571 533.923584,126.110939 
	C526.661072,126.110939 520.066772,126.110939 513.255005,126.110939 
	C513.255005,129.887695 513.255005,133.444870 513.255005,137.014679 
	C520.145874,137.014679 526.749817,137.014679 533.669861,137.014679 
	C533.762939,135.361115 533.844543,133.911041 533.923584,131.517181 
z"/>
<path fill="#D3DEE0" opacity="1.000000" stroke="none" 
	d="
M341.018188,112.002998 
	C344.433258,111.533836 347.848358,111.064659 351.898926,110.508171 
	C351.898926,120.889275 351.898926,130.458054 351.898926,140.477661 
	C367.187927,140.477661 381.934448,140.477661 397.057434,140.477661 
	C397.057434,143.296600 397.057434,145.667252 397.057434,148.453369 
	C389.533112,148.453369 382.091644,148.453369 374.274780,148.453369 
	C374.274780,154.593597 374.274780,160.345795 374.274780,166.743439 
	C384.625610,166.743439 395.169159,166.743439 405.933929,166.743439 
	C405.933929,169.650238 405.933929,171.923126 405.933929,174.531128 
	C380.870117,174.531128 355.815887,174.531128 330.415466,174.531128 
	C330.415466,171.893188 330.415466,169.315689 330.415466,166.145050 
	C340.899048,166.145050 351.448608,166.145050 362.159576,166.145050 
	C362.159576,159.800400 362.159576,154.042633 362.159576,147.730896 
	C357.189148,147.730896 352.358673,148.158249 347.661743,147.551559 
	C345.294403,147.245758 343.169250,145.064804 341.115784,143.250183 
	C341.179749,142.508621 341.062531,142.248627 340.945312,141.988617 
	C340.868500,132.635559 340.791718,123.282509 340.982147,113.378998 
	C341.323822,112.734276 341.480591,112.588715 341.459045,112.554192 
	C341.335541,112.355873 341.169678,112.183907 341.018188,112.002998 
z"/>
<path fill="#D6E1E3" opacity="1.000000" stroke="none" 
	d="
M449.885803,126.852417 
	C449.932312,121.208694 449.932312,116.055511 449.932312,110.503410 
	C453.729370,110.503410 457.270386,110.503410 461.277039,110.503410 
	C461.277039,125.815895 461.464478,141.114471 461.028198,156.395233 
	C460.976532,158.205383 457.578217,161.347244 455.617950,161.438538 
	C444.815063,161.941711 433.968018,161.912201 423.159454,161.480972 
	C421.299530,161.406754 418.030701,158.559891 417.988770,156.927597 
	C417.591614,141.473358 417.752289,126.004791 417.752289,110.323639 
	C421.530579,110.323639 424.949249,110.323639 428.941895,110.323639 
	C428.941895,116.404587 428.941895,122.304184 428.941895,129.362930 
	C436.340332,128.647781 443.089813,127.995361 449.885803,126.852417 
M449.074921,150.244843 
	C449.074921,145.148758 449.074921,140.052658 449.074921,135.070099 
	C441.691772,135.070099 434.989990,135.070099 428.328552,135.070099 
	C428.328552,141.422821 428.328552,147.344345 428.328552,153.806458 
	C434.695770,153.806458 440.805267,153.896362 446.904816,153.690933 
	C447.654480,153.665695 448.351013,152.061920 449.074921,150.244843 
z"/>
<path fill="#D1DBDD" opacity="1.000000" stroke="none" 
	d="
M619.996033,119.795944 
	C624.822937,119.795601 629.159973,119.950066 633.473022,119.696480 
	C634.698486,119.624435 635.854126,118.364174 637.041748,117.648834 
	C635.854919,116.934196 634.674438,115.610298 633.480286,115.597908 
	C619.504578,115.452835 605.526794,115.504890 591.150574,115.504890 
	C591.150574,113.277702 591.150574,111.209206 591.150574,108.762085 
	C610.017212,108.762085 629.027527,108.762085 648.286682,108.762085 
	C648.286682,114.441856 648.286682,119.992844 648.286682,125.929543 
	C634.356750,125.929543 620.735962,125.978058 607.116028,125.890701 
	C604.213074,125.872086 602.093384,126.093636 603.492676,130.221771 
	C618.858521,130.221771 634.269104,130.221771 649.974976,130.221771 
	C649.974976,132.679626 649.974976,134.737503 649.974976,137.283463 
	C639.823792,137.283463 629.870117,137.202850 619.918518,137.309265 
	C612.125061,137.392609 604.328308,137.934906 596.546753,137.736160 
	C594.906616,137.694290 592.141357,135.472183 591.939941,133.978775 
	C591.328247,129.443542 591.718384,124.773186 591.718384,119.795937 
	C601.221741,119.795937 610.359375,119.795937 619.996033,119.795944 
z"/>
<path fill="#D5E0E2" opacity="1.000000" stroke="none" 
	d="
M764.971069,142.117386 
	C761.299866,142.503555 759.641052,140.359695 759.581238,137.158768 
	C759.416870,128.369431 759.524536,119.575027 759.524536,110.440140 
	C778.217773,110.440140 796.574829,110.440140 815.462708,110.440140 
	C815.462708,119.532684 815.720032,128.628510 815.340576,137.697693 
	C815.180847,141.513611 811.928955,142.503052 808.362976,142.480484 
	C794.889404,142.395157 781.415222,142.421097 767.336670,142.039597 
	C766.145142,141.821671 765.558105,141.969528 764.971069,142.117386 
M775.655518,118.013809 
	C774.215332,118.099007 772.775208,118.184196 771.272583,118.273087 
	C771.272583,124.135796 771.272583,129.645767 771.272583,135.257889 
	C782.361816,135.257889 793.079224,135.257889 803.761230,135.257889 
	C803.761230,129.405716 803.761230,123.846329 803.761230,118.010895 
	C794.498230,118.010895 785.563354,118.010895 775.655518,118.013809 
z"/>
<path fill="#D4DEE1" opacity="1.000000" stroke="none" 
	d="
M568.358643,150.740875 
	C568.757080,159.546127 568.890259,168.028152 568.881714,176.510040 
	C568.877625,180.555588 566.531006,182.714844 562.610413,182.736664 
	C548.461060,182.815369 534.310730,182.778412 520.161133,182.710480 
	C517.194824,182.696243 514.848328,181.520325 514.824036,178.094269 
	C514.759399,168.976395 514.802063,159.857773 514.802063,150.481506 
	C518.602173,150.481506 522.014648,150.481506 525.832031,150.481506 
	C525.956604,153.187256 526.075562,155.770508 526.210388,158.698837 
	C536.530518,158.698837 546.747314,158.698837 557.242798,158.698837 
	C557.373047,156.097458 557.503052,153.500061 557.657410,150.417603 
	C561.211060,150.417603 564.623108,150.417603 568.358643,150.740875 
M538.518372,175.751755 
	C544.746826,175.751755 550.975281,175.751755 557.200439,175.751755 
	C557.200439,172.423721 557.200439,169.840347 557.200439,167.287506 
	C546.672363,167.287506 536.467651,167.287506 526.333557,167.287506 
	C526.333557,170.222595 526.333557,172.786179 526.333557,175.751541 
	C530.279541,175.751541 533.904297,175.751541 538.518372,175.751755 
z"/>
<path fill="#D3DEE0" opacity="1.000000" stroke="none" 
	d="
M689.862244,145.122650 
	C688.824219,145.070938 687.776611,145.069397 687.189453,145.588531 
	C682.846741,149.428162 678.841248,153.692520 674.253479,157.200546 
	C668.577881,161.540390 668.379456,161.280884 662.614258,155.118851 
	C682.196167,145.875107 685.281189,128.873138 682.910278,109.518211 
	C687.552429,109.518211 691.298279,109.518211 696.024963,109.518211 
	C693.960022,128.532776 696.556702,145.783478 716.337891,154.846680 
	C711.070679,161.837433 709.966858,162.288147 703.783997,157.644409 
	C698.902832,153.978333 694.616455,149.520264 689.862244,145.122650 
z"/>
<path fill="#D9E4E6" opacity="1.000000" stroke="none" 
	d="
M486.973511,129.414673 
	C489.899353,129.411057 492.358032,129.411057 495.078125,129.411057 
	C495.078125,132.041000 495.078125,134.299240 495.078125,137.065552 
	C491.280273,137.065552 487.544891,137.065552 483.278809,137.065552 
	C483.278809,152.434464 483.278809,167.314606 483.278809,182.468750 
	C479.330139,182.468750 475.920563,182.468750 472.150879,182.468750 
	C472.150879,157.614090 472.150879,132.901337 472.150879,107.904495 
	C475.577423,107.904495 479.008240,107.904495 483.120758,107.904495 
	C483.120758,113.946220 483.242035,120.025627 483.065063,126.096344 
	C482.986816,128.779831 483.955322,129.761993 486.973511,129.414673 
z"/>
<path fill="#D8E3E6" opacity="1.000000" stroke="none" 
	d="
M724.037964,181.005234 
	C723.968262,157.309631 723.898560,133.613998 724.142578,109.328369 
	C724.644043,108.458199 724.831909,108.178032 725.019714,107.897865 
	C727.437256,107.818909 729.854736,107.739960 732.723755,107.934845 
	C733.450806,108.139709 733.726501,108.070740 734.002136,108.001770 
	C734.356079,110.793900 734.900452,113.577965 735.019165,116.380058 
	C735.193665,120.500046 735.064087,124.632912 735.064087,129.243164 
	C739.226929,129.243164 742.967834,129.243164 747.032471,129.243164 
	C747.032471,131.974854 747.032471,134.218170 747.032471,137.006683 
	C743.312622,137.006683 739.584961,137.006683 735.268738,137.006683 
	C735.268738,152.389862 735.268738,167.253052 735.268738,182.717865 
	C731.756470,182.717865 728.818848,182.717865 725.375244,182.307953 
	C724.592285,181.600433 724.315125,181.302826 724.037964,181.005234 
z"/>
<path fill="#D0DBDD" opacity="1.000000" stroke="none" 
	d="
M782.960083,150.493393 
	C789.592285,150.410492 796.224548,150.327591 803.575928,150.714600 
	C807.607605,150.955505 810.920166,150.726517 814.232727,150.497513 
	C817.139099,150.413605 820.045471,150.329697 823.505615,150.566742 
	C824.413208,150.807800 824.767151,150.727936 825.121033,150.648071 
	C825.540955,152.946426 825.960876,155.244781 826.497070,158.179535 
	C815.239746,158.179535 804.688843,158.179535 793.760620,158.179535 
	C793.760620,166.496216 793.760620,174.256210 793.760620,182.393707 
	C789.839355,182.393707 786.303467,182.393707 782.241211,182.393707 
	C782.241211,174.472992 782.241211,166.587524 782.241211,158.291946 
	C771.323242,158.291946 760.913147,158.291946 749.957581,158.291946 
	C749.957581,156.288773 749.957581,154.698517 750.527710,152.523224 
	C751.477051,151.463379 751.856201,150.988541 752.235352,150.513733 
	C753.492554,150.424362 754.749695,150.334976 756.653259,150.716370 
	C760.944458,150.957062 764.589233,150.726974 768.234009,150.496887 
	C770.136169,150.412918 772.038269,150.328934 774.593872,150.695435 
	C777.818237,150.928421 780.389160,150.710907 782.960083,150.493393 
z"/>
<path fill="#D0DADC" opacity="1.000000" stroke="none" 
	d="
M724.105408,212.382339 
	C722.925781,217.121536 721.602112,221.422058 720.806030,225.818146 
	C720.018066,230.169540 717.891235,231.767303 713.126526,230.280884 
	C710.895264,220.618210 708.597473,210.667542 706.291443,200.681244 
	C710.880432,199.002991 712.879089,200.285324 713.402100,205.036133 
	C713.943848,209.957245 715.328125,214.785599 717.128357,219.894180 
	C719.057312,213.345810 720.986267,206.797440 722.813904,200.592911 
	C728.432007,198.651505 730.723999,200.954544 731.688782,206.011169 
	C732.552063,210.535339 734.093018,214.930222 736.346191,219.467957 
	C737.366943,214.562759 738.709229,209.696503 739.309448,204.740387 
	C739.815613,200.561081 741.647888,199.238693 746.351868,200.529785 
	C744.143250,210.327164 741.906006,220.251587 739.686829,230.095627 
	C732.002380,231.703369 731.760742,231.559540 729.958008,224.582748 
	C728.634033,219.458755 727.299805,214.337402 725.738281,208.321594 
	C724.988220,210.099396 724.590332,211.042465 724.105408,212.382339 
z"/>
<path fill="#CBD4D7" opacity="1.000000" stroke="none" 
	d="
M520.489685,228.765259 
	C516.758057,222.340958 513.236694,216.237579 509.715302,210.134186 
	C509.420135,210.214310 509.124939,210.294434 508.829773,210.374557 
	C508.829773,216.900375 508.829773,223.426193 508.829773,230.375916 
	C506.544983,230.375916 504.700653,230.375916 502.552856,230.375916 
	C502.552856,220.391846 502.552856,210.504822 502.552856,200.613724 
	C507.141327,199.071518 510.050171,200.247711 512.207458,204.652634 
	C514.868225,210.085709 518.223999,215.178421 522.395752,220.210785 
	C522.395752,213.597321 522.395752,206.983856 522.395752,200.329224 
	C524.871643,200.329224 526.627075,200.329224 528.612122,200.329224 
	C528.612122,210.353592 528.612122,220.115433 528.612122,231.206467 
	C525.814636,230.456802 523.257324,229.771484 520.489685,228.765259 
z"/>
<path fill="#D0DADC" opacity="1.000000" stroke="none" 
	d="
M540.031738,205.081924 
	C546.214722,199.390121 552.683044,198.592026 558.320312,202.560654 
	C564.060242,206.601532 566.203430,215.542297 563.193848,222.891327 
	C560.523010,229.413193 554.501221,232.656326 547.485046,231.351700 
	C538.958008,229.766113 534.247925,220.007217 537.412659,210.275482 
	C537.969360,208.563461 538.996155,207.004318 540.031738,205.081924 
M543.093201,219.810165 
	C544.089966,224.409195 546.831604,226.738480 551.628845,226.209167 
	C556.429871,225.679443 557.844238,222.198166 558.146545,218.115387 
	C558.341125,215.488113 558.267944,212.785416 557.874023,210.183243 
	C557.288513,206.314957 555.134644,203.938095 550.867920,203.823364 
	C546.444763,203.704422 543.860229,205.854828 543.228088,210.020844 
	C542.784546,212.944138 543.020264,215.970520 543.093201,219.810165 
z"/>
<path fill="#D1DBDD" opacity="1.000000" stroke="none" 
	d="
M702.939575,227.091003 
	C703.399780,228.349808 703.731873,229.239532 704.119446,230.278122 
	C700.399170,231.330826 697.660889,231.145966 696.621582,226.986404 
	C695.835571,223.840210 693.956055,222.696411 690.494873,222.770493 
	C685.258301,222.882584 680.242004,222.240601 678.648804,229.232590 
	C678.420715,230.233505 674.925598,230.490005 671.721863,231.460953 
	C676.308472,220.735199 680.168091,211.422714 684.362427,202.263504 
	C684.887573,201.116760 687.180237,200.236511 688.654602,200.235565 
	C689.879028,200.234787 691.705994,201.432877 692.232788,202.575989 
	C695.909607,210.555222 699.317383,218.658417 702.939575,227.091003 
M686.051514,213.731186 
	C685.584961,215.202606 685.118469,216.674026 684.579346,218.374557 
	C687.685486,218.374557 690.084656,218.374557 693.010864,218.374557 
	C691.557251,214.614563 690.273987,211.295258 688.713562,207.259033 
	C687.684387,209.705063 686.995544,211.342178 686.051514,213.731186 
z"/>
<path fill="#D1DBDD" opacity="1.000000" stroke="none" 
	d="
M622.631958,223.262955 
	C623.659058,225.715591 624.512573,227.835419 625.432861,230.121033 
	C621.343567,231.667450 618.814453,230.773376 617.817444,226.608902 
	C617.061462,223.450974 614.961243,222.768951 611.892822,222.831757 
	C606.774902,222.936523 601.492432,221.888718 599.934326,229.117157 
	C599.711060,230.152756 596.327454,230.507111 594.406433,231.176727 
	C594.145386,230.786652 593.884338,230.396576 593.623230,230.006500 
	C597.675171,220.624771 601.641724,211.203873 605.901184,201.917313 
	C606.365479,200.904999 608.611267,200.046494 609.863586,200.233871 
	C611.294067,200.447891 613.164429,201.618530 613.757080,202.882828 
	C616.847839,209.476059 619.593018,216.231277 622.631958,223.262955 
M611.226074,218.649277 
	C612.050781,217.917130 613.700623,216.931549 613.566223,216.493988 
	C612.698059,213.667465 611.440552,210.960541 609.921814,207.269180 
	C608.260742,211.580704 607.046326,214.733017 605.650513,218.356155 
	C607.583252,218.475693 608.991455,218.562790 611.226074,218.649277 
z"/>
<path fill="#CED7D9" opacity="1.000000" stroke="none" 
	d="
M570.555115,209.615616 
	C569.398621,206.462936 568.397644,203.666260 567.337708,200.704681 
	C571.363403,199.193253 573.562622,199.970596 574.728394,204.269958 
	C576.345093,210.232544 578.601990,216.021561 581.613892,221.840057 
	C583.528503,216.103607 585.436279,210.364883 587.359680,204.631409 
	C588.953796,199.879562 588.961914,199.882294 595.012207,200.431717 
	C591.456421,209.963455 588.018555,219.388901 584.341980,228.720291 
	C583.960876,229.687607 582.072693,230.741302 581.041809,230.600235 
	C579.754272,230.424026 578.014038,229.304901 577.539368,228.152191 
	C575.075500,222.169266 572.952454,216.046005 570.555115,209.615616 
z"/>
<path fill="#CBD4D7" opacity="1.000000" stroke="none" 
	d="
M666.406982,230.768066 
	C660.024231,230.763596 654.078857,230.763596 647.872070,230.763596 
	C647.872070,220.492340 647.872070,210.588516 647.872070,200.363556 
	C649.658752,200.363556 651.390869,200.363556 653.553528,200.363556 
	C653.553528,208.735443 653.553528,217.137115 653.553528,226.005234 
	C658.839417,226.005234 663.721741,226.005234 668.604065,226.005234 
	C668.997192,226.458267 669.390320,226.911285 669.783447,227.364319 
	C668.803772,228.500397 667.824097,229.636475 666.406982,230.768066 
z"/>
<path fill="#EBF1F4" opacity="1.000000" stroke="none" 
	d="
M782.548096,150.401459 
	C780.389160,150.710907 777.818237,150.928421 774.984741,150.819885 
	C777.193481,150.432419 779.664795,150.370972 782.548096,150.401459 
z"/>
<path fill="#EBF1F4" opacity="1.000000" stroke="none" 
	d="
M767.761719,150.403564 
	C764.589233,150.726974 760.944458,150.957062 757.013550,150.842880 
	C760.248108,150.435837 763.768799,150.373047 767.761719,150.403564 
z"/>
<path fill="#EBF1F4" opacity="1.000000" stroke="none" 
	d="
M813.762695,150.404343 
	C810.920166,150.726517 807.607605,150.955505 804.010620,150.842102 
	C806.915039,150.436874 810.103882,150.374023 813.762695,150.404343 
z"/>
<path fill="#EBF1F4" opacity="1.000000" stroke="none" 
	d="
M557.699097,145.335938 
	C558.862732,145.807831 559.906677,146.641876 560.989441,147.839691 
	C559.141663,148.382858 556.548950,149.534210 557.699097,145.335938 
z"/>
<path fill="#EBF1F4" opacity="1.000000" stroke="none" 
	d="
M557.637390,130.463730 
	C559.976868,130.441620 560.624695,131.266083 558.171631,132.961243 
	C557.746155,132.293411 557.663513,131.562469 557.637390,130.463730 
z"/>
<path fill="#EBF1F4" opacity="1.000000" stroke="none" 
	d="
M568.672241,109.727531 
	C567.742004,109.497116 566.907410,109.024040 566.030701,108.234467 
	C566.452637,107.850388 566.916809,107.782814 567.715942,108.089348 
	C568.142273,108.740654 568.329346,108.915146 568.612305,108.986931 
	C568.664185,109.152908 568.716064,109.318893 568.672241,109.727531 
z"/>
<path fill="#EBF1F4" opacity="1.000000" stroke="none" 
	d="
M765.309937,142.225372 
	C765.558105,141.969528 766.145142,141.821671 766.887451,141.905334 
	C766.578125,142.202362 766.113464,142.267868 765.309937,142.225372 
z"/>
<path fill="#D5E0E2" opacity="1.000000" stroke="none" 
	d="
M568.735352,108.743576 
	C568.329346,108.915146 568.142273,108.740654 568.024658,108.266190 
	C568.284973,108.212685 568.571655,108.356461 568.735352,108.743576 
z"/>
<path fill="#EBF1F4" opacity="1.000000" stroke="none" 
	d="
M724.009521,181.395599 
	C724.315125,181.302826 724.592285,181.600433 725.007080,182.175690 
	C724.756836,182.230881 724.368958,182.008423 724.009521,181.395599 
z"/>
<path fill="#EBF1F4" opacity="1.000000" stroke="none" 
	d="
M824.801514,150.499084 
	C824.767151,150.727936 824.413208,150.807800 823.925598,150.691269 
	C824.021912,150.446609 824.251892,150.398361 824.801514,150.499084 
z"/>
<path fill="#EBF1F4" opacity="1.000000" stroke="none" 
	d="
M751.651855,150.506393 
	C751.856201,150.988541 751.477051,151.463379 750.711670,152.196625 
	C750.573120,151.803070 750.820740,151.151077 751.651855,150.506393 
z"/>
<path fill="#EBF1F4" opacity="1.000000" stroke="none" 
	d="
M724.692505,107.868584 
	C724.831909,108.178032 724.644043,108.458199 724.236816,108.867813 
	C724.133301,108.611259 724.249268,108.225281 724.692505,107.868584 
z"/>
<path fill="#EBF1F4" opacity="1.000000" stroke="none" 
	d="
M567.237915,148.294617 
	C567.214539,148.061340 567.478394,147.908432 567.873901,147.888535 
	C567.845398,148.139359 567.685242,148.257187 567.237915,148.294617 
z"/>
<path fill="#EBF1F4" opacity="1.000000" stroke="none" 
	d="
M340.871948,142.246948 
	C341.062531,142.248627 341.179749,142.508621 341.159241,142.881287 
	C340.947266,142.831085 340.872955,142.668198 340.871948,142.246948 
z"/>
<path fill="#EBF1F4" opacity="1.000000" stroke="none" 
	d="
M340.902588,112.248962 
	C341.169678,112.183907 341.335541,112.355873 341.459045,112.554192 
	C341.480591,112.588715 341.323822,112.734276 341.093262,112.922928 
	C340.887115,112.843201 340.837067,112.669067 340.902588,112.248962 
z"/>
<path fill="#EBF1F4" opacity="1.000000" stroke="none" 
	d="
M733.755615,107.873405 
	C733.726501,108.070740 733.450806,108.139709 733.077271,108.060822 
	C733.155945,107.856987 733.332581,107.801018 733.755615,107.873405 
z"/>
<path fill="#1D1F20" opacity="1.000000" stroke="none" 
	d="
M612.821594,150.343109 
	C616.853210,149.731598 620.765381,149.291611 624.654846,149.441254 
	C625.591858,149.477310 626.453735,151.466782 627.350159,152.557922 
	C627.050110,153.013351 626.750061,153.468781 626.449951,153.924210 
	C622.684204,153.924210 618.899353,154.127625 615.166260,153.778412 
	C614.255066,153.693161 613.513428,151.795456 612.821594,150.343109 
z"/>
<path fill="#060707" opacity="1.000000" stroke="none" 
	d="
M533.924927,131.989075 
	C533.844543,133.911041 533.762939,135.361115 533.669861,137.014679 
	C526.749817,137.014679 520.145874,137.014679 513.255005,137.014679 
	C513.255005,133.444870 513.255005,129.887695 513.255005,126.110939 
	C520.066772,126.110939 526.661072,126.110939 533.923584,126.110939 
	C533.923584,127.989571 533.923584,129.753372 533.924927,131.989075 
z"/>
<path fill="#060707" opacity="1.000000" stroke="none" 
	d="
M449.073547,150.717255 
	C448.351013,152.061920 447.654480,153.665695 446.904816,153.690933 
	C440.805267,153.896362 434.695770,153.806458 428.328552,153.806458 
	C428.328552,147.344345 428.328552,141.422821 428.328552,135.070099 
	C434.989990,135.070099 441.691772,135.070099 449.074921,135.070099 
	C449.074921,140.052658 449.074921,145.148758 449.073547,150.717255 
z"/>
<path fill="#090909" opacity="1.000000" stroke="none" 
	d="
M776.141968,118.012352 
	C785.563354,118.010895 794.498230,118.010895 803.761230,118.010895 
	C803.761230,123.846329 803.761230,129.405716 803.761230,135.257889 
	C793.079224,135.257889 782.361816,135.257889 771.272583,135.257889 
	C771.272583,129.645767 771.272583,124.135796 771.272583,118.273087 
	C772.775208,118.184196 774.215332,118.099007 776.141968,118.012352 
z"/>
<path fill="#0E1010" opacity="1.000000" stroke="none" 
	d="
M538.023682,175.751648 
	C533.904297,175.751541 530.279541,175.751541 526.333557,175.751541 
	C526.333557,172.786179 526.333557,170.222595 526.333557,167.287506 
	C536.467651,167.287506 546.672363,167.287506 557.200439,167.287506 
	C557.200439,169.840347 557.200439,172.423721 557.200439,175.751755 
	C550.975281,175.751755 544.746826,175.751755 538.023682,175.751648 
z"/>
<path fill="#060707" opacity="1.000000" stroke="none" 
	d="
M543.022949,219.380524 
	C543.020264,215.970520 542.784546,212.944138 543.228088,210.020844 
	C543.860229,205.854828 546.444763,203.704422 550.867920,203.823364 
	C555.134644,203.938095 557.288513,206.314957 557.874023,210.183243 
	C558.267944,212.785416 558.341125,215.488113 558.146545,218.115387 
	C557.844238,222.198166 556.429871,225.679443 551.628845,226.209167 
	C546.831604,226.738480 544.089966,224.409195 543.022949,219.380524 
z"/>
<path fill="#1D1F20" opacity="1.000000" stroke="none" 
	d="
M686.179077,213.355225 
	C686.995544,211.342178 687.684387,209.705063 688.713562,207.259033 
	C690.273987,211.295258 691.557251,214.614563 693.010864,218.374557 
	C690.084656,218.374557 687.685486,218.374557 684.579346,218.374557 
	C685.118469,216.674026 685.584961,215.202606 686.179077,213.355225 
z"/>
<path fill="#1D1F20" opacity="1.000000" stroke="none" 
	d="
M610.812866,218.649582 
	C608.991455,218.562790 607.583252,218.475693 605.650513,218.356155 
	C607.046326,214.733017 608.260742,211.580704 609.921814,207.269180 
	C611.440552,210.960541 612.698059,213.667465 613.566223,216.493988 
	C613.700623,216.931549 612.050781,217.917130 610.812866,218.649582 
z"/>
</svg>